<svg width="48" height="48" viewBox="0 0 48 48" fill="none" xmlns="http://www.w3.org/2000/svg">
<rect width="48" height="48" rx="24" fill="#F4EBFF"/>
<path d="M34 23.0801V24.0001C33.9988 26.1565 33.3005 28.2548 32.0093 29.9819C30.7182 31.7091 28.9033 32.9726 26.8354 33.584C24.7674 34.1954 22.5573 34.122 20.5345 33.3747C18.5117 32.6274 16.7847 31.2462 15.611 29.4372C14.4373 27.6281 13.8798 25.4882 14.0217 23.3364C14.1636 21.1847 14.9972 19.1364 16.3983 17.4972C17.7994 15.8579 19.6928 14.7155 21.7962 14.2403C23.8996 13.765 26.1003 13.9824 28.07 14.8601M34 16.0001L24 26.0101L21 23.0101" stroke="#6A40C4" stroke-width="2" stroke-linecap="round" stroke-linejoin="round"/>
</svg>
