<svg width="134" height="23" viewBox="0 0 134 23" fill="none" xmlns="http://www.w3.org/2000/svg">
<path d="M6.67448 17.6904L6.99466 13.795H4.28546L3.96528 17.6904H2.16736L2.48754 13.795H0V12.1575H2.63531L2.98012 8.28695H0.467952V6.64941H3.10326L3.4727 2.67961H5.27062L4.90118 6.64941H7.61038L7.97982 2.67961H9.77774L9.4083 6.64941H11.8958V8.28695H9.28516L8.94035 12.1575H11.4279V13.795H8.79258L8.4724 17.6904H6.67448ZM4.77804 8.28695L4.43323 12.1575H7.14243L7.48724 8.28695H4.77804Z" fill="#6A40C4"/>
<path d="M18.3284 1.19094L22.5154 12.4056H22.5646L26.7762 1.19094H31.6528V3.20065L30.84 3.27508C30.3474 3.3247 30.1094 3.61417 30.1258 4.14348L30.7415 15.507L32.2685 15.5814V17.6904H26.3329V15.6807L27.2195 15.6063C27.6629 15.5732 27.8763 15.3581 27.8599 14.9612L27.3919 6.20281H27.3427L23.5498 16.1025H21.2101L17.4664 6.30205H17.4172L16.9246 15.507L18.5255 15.5814V17.6904H12.713V15.6807L13.5997 15.6063C13.9773 15.5732 14.1826 15.3499 14.2154 14.9364L14.8804 3.39914L13.378 3.29989V1.19094H18.3284Z" fill="#6A40C4"/>
<path d="M44.1393 5.70658V14.9364C44.1393 15.201 44.1804 15.383 44.2625 15.4822C44.361 15.5814 44.5252 15.6393 44.7551 15.6559L45.5432 15.7055V17.6904H41.6272V16.2513L41.5533 16.2265C40.7323 17.4175 39.6076 18.0129 38.1791 18.0129C36.5043 18.0129 35.2647 17.4754 34.4601 16.4002C33.6556 15.3251 33.2533 13.8529 33.2533 11.9838C33.2533 9.73427 33.7951 7.98094 34.8788 6.72384C35.9625 5.46674 37.588 4.83819 39.7554 4.83819C41.151 4.83819 42.6123 5.12765 44.1393 5.70658ZM41.2824 13.7454V7.31931C40.8226 7.10428 40.1905 6.99676 39.3859 6.99676C38.2858 6.99676 37.4895 7.44337 36.9969 8.33657C36.5043 9.22977 36.258 10.4124 36.258 11.8846C36.258 14.5642 37.1118 15.904 38.8194 15.904C39.5419 15.904 40.133 15.689 40.5927 15.2589C41.0525 14.8123 41.2824 14.3078 41.2824 13.7454Z" fill="#6A40C4"/>
<path d="M48.0894 14.9115V2.82848C48.0894 2.56383 48.0401 2.38188 47.9416 2.28263C47.8595 2.18339 47.7035 2.12549 47.4737 2.10895L46.6117 2.05933V0H50.9956V10.7433C51.8987 10.6606 52.6868 10.3794 53.36 9.89968C54.0332 9.41999 54.493 8.79144 54.7392 8.01402C54.7885 7.84862 54.8131 7.71629 54.8131 7.61704C54.8131 7.33585 54.6572 7.19525 54.3452 7.19525L53.4093 7.14563V5.21036H58.5075V7.22006L57.3253 7.26969C57.1118 8.95685 56.3894 10.2884 55.1579 11.2643L57.5716 15.6311L59.074 15.7055V17.6904H55.4781L52.6704 12.5297C52.1286 12.6785 51.5703 12.7943 50.9956 12.877V15.6311H51.0203L52.4241 15.7055V17.6904H46.5624V15.8047L47.3752 15.7303C47.6214 15.6972 47.8021 15.6311 47.917 15.5318C48.0319 15.416 48.0894 15.2093 48.0894 14.9115Z" fill="#6A40C4"/>
<path d="M65.9372 4.83819C67.1687 4.83819 68.1456 5.14419 68.8681 5.7562C69.5905 6.35167 69.9517 7.19525 69.9517 8.28695C69.9517 9.01474 69.7958 9.65983 69.4838 10.2222C69.1718 10.7681 68.786 11.1981 68.3262 11.5124C67.8665 11.8267 67.3082 12.0831 66.6514 12.2816C65.5513 12.6124 64.3117 12.7778 62.9325 12.7778C62.9817 13.6544 63.2526 14.3657 63.7452 14.9115C64.2378 15.4408 64.9931 15.7055 66.0111 15.7055C67.0291 15.7055 68.0471 15.3416 69.0651 14.6138L70.001 16.6235C69.6726 16.9212 69.1143 17.2273 68.3262 17.5415C67.5545 17.8558 66.6679 18.0129 65.6663 18.0129C63.6631 18.0129 62.1936 17.4588 61.2577 16.3506C60.3218 15.2258 59.8538 13.6875 59.8538 11.7357C59.8538 9.78389 60.3875 8.14635 61.4547 6.82308C62.522 5.49982 64.0161 4.83819 65.9372 4.83819ZM64.8043 10.52C65.4118 10.4042 65.97 10.1643 66.479 9.80043C66.988 9.41999 67.2425 8.97339 67.2425 8.46062C67.2425 7.45163 66.75 6.94714 65.7648 6.94714C64.8453 6.94714 64.1393 7.31931 63.6467 8.06365C63.1541 8.79144 62.8832 9.66811 62.8339 10.6936C63.5564 10.6771 64.2132 10.6192 64.8043 10.52Z" fill="#6A40C4"/>
<path d="M76.4877 1.19094L80.6746 12.4056H80.7239L84.9354 1.19094H89.812V3.20065L88.9992 3.27508C88.5067 3.3247 88.2686 3.61417 88.285 4.14348L88.9007 15.507L90.4277 15.5814V17.6904H84.4921V15.6807L85.3788 15.6063C85.8221 15.5732 86.0355 15.3581 86.0191 14.9612L85.5512 6.20281H85.5019L81.709 16.1025H79.3693L75.6257 6.30205H75.5764L75.0838 15.507L76.6847 15.5814V17.6904H70.8723V15.6807L71.7589 15.6063C72.1365 15.5732 72.3418 15.3499 72.3746 14.9364L73.0396 3.39914L71.5372 3.29989V1.19094H76.4877Z" fill="#6A40C4"/>
<path d="M100.304 17.219V15.3333C99.4005 16.6235 98.0706 17.2686 96.3137 17.2686C93.7687 17.2686 92.4962 15.8378 92.4962 12.9763V7.98921C92.4962 7.54261 92.2909 7.31104 91.8804 7.2945L91.0923 7.24488V5.21036H95.427V12.3312C95.427 13.2078 95.5502 13.8695 95.7965 14.3161C96.0428 14.7627 96.5518 14.986 97.3235 14.986C98.0952 14.986 98.7109 14.7461 99.1707 14.2664C99.6468 13.7868 99.8849 13.2078 99.8849 12.5297V8.03883C99.8849 7.75764 99.8356 7.56742 99.7371 7.46818C99.655 7.35239 99.499 7.2945 99.2692 7.2945L98.481 7.24488V5.21036H102.816V17.219C102.816 19.2204 102.331 20.6843 101.363 21.6106C100.41 22.5369 98.9572 23 97.0033 23C95.0658 23 93.5552 22.7271 92.4716 22.1812V18.7325L94.8113 18.534V19.7249C94.8113 20.1715 95.0166 20.4693 95.427 20.6181C95.8375 20.7835 96.404 20.8662 97.1264 20.8662C99.2446 20.8662 100.304 19.6505 100.304 17.219Z" fill="#6A40C4"/>
<path d="M114.791 3.82093C114.611 3.50665 113.938 3.34952 112.772 3.34952C111.245 3.34952 110.087 3.87055 109.299 4.91262C108.511 5.95469 108.117 7.45991 108.117 9.42826C108.117 13.5138 109.636 15.5566 112.673 15.5566C112.723 15.5566 112.936 15.5566 113.314 15.5566C113.708 15.5566 114.077 15.507 114.422 15.4078C114.767 15.292 114.972 15.1762 115.038 15.0604C115.103 14.9446 115.136 14.7627 115.136 14.5146V12.5297L117.648 12.7033V16.9957C116.368 17.6739 114.742 18.0129 112.772 18.0129C110.26 18.0129 108.339 17.3017 107.009 15.8792C105.695 14.4567 105.038 12.3394 105.038 9.52751C105.038 7.97267 105.26 6.61633 105.703 5.45847C106.147 4.30061 106.746 3.39914 107.501 2.75405C108.979 1.51348 110.736 0.893205 112.772 0.893205C114.414 0.893205 115.957 1.23229 117.402 1.91046V6.12837L114.89 6.30205V4.36678C114.89 4.11866 114.857 3.93671 114.791 3.82093Z" fill="#6A40C4"/>
<path d="M122.966 4.14348L126.266 14.1424H126.39L129.838 3.39914L128.335 3.29989V1.19094H134V3.20065L133.187 3.27508C132.974 3.29162 132.818 3.35779 132.719 3.47357C132.621 3.57282 132.522 3.75477 132.424 4.01942L127.769 17.6904H124.567L119.543 3.37433L118.139 3.29989V1.19094H124.493V3.20065L123.68 3.27508C123.171 3.30816 122.917 3.50665 122.917 3.87055C122.917 3.95325 122.933 4.04423 122.966 4.14348Z" fill="#6A40C4"/>
</svg>
