<svg xmlns:xlink="http://www.w3.org/1999/xlink" xmlns="http://www.w3.org/2000/svg" viewBox="106.496 356.352 829.44 561.152" style="max-height: 500px" width="829.44" height="561.152">
	<path d="M646.492 213.175C651.027 213.274 655.021 213.755 658.841 216.479C662.936 219.399 665.33 224.077 666.021 228.992Q666.094 229.482 666.141 229.976Q666.189 230.47 666.211 230.965Q666.234 231.46 666.231 231.956Q666.228 232.452 666.2 232.947Q666.172 233.442 666.119 233.935Q666.066 234.428 665.988 234.917Q665.91 235.407 665.807 235.892Q665.704 236.377 665.576 236.856Q665.449 237.335 665.297 237.807Q665.146 238.279 664.97 238.743Q664.795 239.207 664.596 239.661Q664.397 240.115 664.175 240.559Q663.954 241.002 663.71 241.434Q663.466 241.866 663.2 242.284Q662.935 242.703 662.648 243.108Q662.362 243.512 662.055 243.902C658.496 248.349 653.966 250.083 648.496 250.763C643.689 250.653 639.608 250.029 635.649 246.998C631.733 244.002 629.347 239.453 628.731 234.593C628.077 229.435 629.315 224.068 632.597 219.978C636.214 215.472 640.961 213.81 646.492 213.175Z" fill="#FEFEFE"/>
	<path d="M876.622 658.85C876.127 661.532 875.567 664.15 874.683 666.734C872.035 674.471 866.833 680.927 859.425 684.551C852.291 688.041 844.306 688.879 836.742 686.125C829.208 683.381 822.999 677.434 819.646 670.182C816.094 662.496 815.82 653.149 818.824 645.238C822.514 635.52 830.555 629.89 839.67 625.795C839.252 634.993 840.75 642.789 847.172 649.811C852.72 655.877 861.029 659.421 869.22 659.645Q871.089 659.708 872.949 659.508Q874.809 659.309 876.622 658.85Z" fill="#4C289A"/>
	<path d="M187.146 428.218C186.688 431.069 186.137 433.774 185.023 436.463C181.816 444.207 175.572 450.886 167.765 454.086Q167.019 454.384 166.259 454.645Q165.499 454.906 164.728 455.129Q163.956 455.352 163.174 455.538Q162.393 455.723 161.603 455.869Q160.813 456.016 160.017 456.123Q159.22 456.23 158.42 456.299Q157.62 456.367 156.817 456.396Q156.014 456.424 155.211 456.413Q154.407 456.403 153.606 456.353Q152.804 456.302 152.005 456.213Q151.207 456.123 150.414 455.995Q149.621 455.866 148.835 455.698Q148.05 455.531 147.273 455.325Q146.497 455.119 145.731 454.875Q144.966 454.631 144.213 454.35Q143.461 454.069 142.723 453.751Q142.038 453.46 141.368 453.134Q140.699 452.808 140.046 452.448Q139.394 452.089 138.761 451.697Q138.128 451.305 137.516 450.881Q136.904 450.457 136.314 450.003Q135.724 449.548 135.157 449.065Q134.591 448.581 134.051 448.069Q133.51 447.557 132.996 447.018Q132.482 446.479 131.996 445.915Q131.51 445.351 131.053 444.763Q130.596 444.175 130.17 443.564Q129.744 442.953 129.349 442.322Q128.954 441.69 128.592 441.04Q128.23 440.389 127.902 439.721Q127.573 439.052 127.279 438.368Q126.985 437.684 126.726 436.986C123.752 429.166 124.091 419.746 127.604 412.16C131.883 402.922 139.283 398.016 148.592 394.675C147.527 403.355 149.263 411.124 154.756 418.044C159.622 424.175 167.209 428.489 175.002 429.378C179.218 429.859 183.074 429.235 187.146 428.218Z" fill="#4C289A"/>
	<path d="M148.592 394.675C151.005 385.597 155.254 378.558 163.541 373.717Q164.166 373.345 164.809 373.004Q165.452 372.663 166.112 372.355Q166.771 372.047 167.445 371.772Q168.118 371.497 168.805 371.256Q169.492 371.015 170.189 370.809Q170.887 370.602 171.594 370.431Q172.302 370.26 173.017 370.124Q173.732 369.988 174.452 369.888Q175.173 369.788 175.898 369.724Q176.623 369.66 177.35 369.632Q178.077 369.605 178.805 369.613Q179.533 369.622 180.259 369.667Q180.985 369.711 181.708 369.793Q182.432 369.874 183.15 369.991Q183.868 370.108 184.579 370.26Q185.291 370.413 185.994 370.601Q186.696 370.793 187.388 371.02Q188.08 371.247 188.759 371.508Q189.439 371.77 190.104 372.065Q190.77 372.36 191.42 372.688Q192.07 373.016 192.702 373.376Q193.335 373.737 193.949 374.128Q194.562 374.52 195.156 374.941Q195.749 375.363 196.321 375.814Q196.892 376.265 197.44 376.744Q197.989 377.223 198.512 377.729Q199.036 378.235 199.533 378.767Q200.031 379.298 200.501 379.854Q200.971 380.41 201.413 380.989Q201.854 381.567 202.267 382.168Q202.679 382.768 203.06 383.388Q203.442 384.008 203.792 384.646C207.886 392.045 208.483 400.603 206.032 408.63C203.627 416.506 198.41 422.76 191.075 426.527C189.808 427.177 188.473 427.703 187.146 428.218C183.074 429.235 179.218 429.859 175.002 429.378C167.209 428.489 159.622 424.175 154.756 418.044C149.263 411.124 147.527 403.355 148.592 394.675Z" fill="#010100"/>
	<path d="M153.112 393.614C154.706 395.009 157.642 394.598 159.757 394.861C177.238 397.037 183.76 407.746 187.95 423.493C183.26 424.676 178.909 425.468 174.04 424.646Q173.404 424.537 172.773 424.396Q172.143 424.255 171.521 424.082Q170.899 423.91 170.286 423.706Q169.673 423.503 169.071 423.269Q168.469 423.035 167.88 422.771Q167.291 422.507 166.715 422.214Q166.14 421.92 165.58 421.599Q165.02 421.277 164.477 420.928Q163.934 420.578 163.409 420.202Q162.884 419.826 162.379 419.424Q161.874 419.022 161.389 418.595Q160.905 418.168 160.442 417.717Q159.98 417.266 159.54 416.793Q159.101 416.32 158.686 415.825Q158.271 415.33 157.882 414.815Q157.492 414.3 157.129 413.766C153.042 407.762 151.706 400.69 153.112 393.614Z" fill="#4C289A"/>
	<path d="M153.112 393.614C155.305 386.307 159.054 380.519 166.016 376.886C172.065 373.729 179.311 372.594 185.898 374.649C192.512 376.713 197.863 381.65 200.951 387.794C204.059 393.98 204.359 401.419 202.179 407.953C199.884 414.83 194.958 420.135 188.459 423.254L187.95 423.493C183.76 407.746 177.238 397.037 159.757 394.861C157.642 394.598 154.706 395.009 153.112 393.614Z" fill="#FEFEFE"/>
	<path d="M839.67 625.795C841.844 616.81 845.588 609.044 853.822 604.066C860.717 599.897 868.867 598.318 876.762 600.26C884.546 602.176 891.189 607.372 895.294 614.215Q895.673 614.857 896.019 615.517Q896.366 616.177 896.681 616.853Q896.996 617.529 897.277 618.219Q897.559 618.91 897.807 619.613Q898.055 620.316 898.268 621.03Q898.482 621.745 898.661 622.469Q898.839 623.192 898.983 623.924Q899.127 624.656 899.235 625.393Q899.343 626.131 899.415 626.873Q899.487 627.615 899.523 628.36Q899.56 629.104 899.56 629.85Q899.56 630.596 899.524 631.34Q899.489 632.085 899.417 632.827Q899.345 633.569 899.237 634.307Q899.13 635.045 898.987 635.776Q898.843 636.508 898.665 637.232C896.699 644.968 891.477 651.393 884.66 655.435C882.094 656.956 879.468 657.983 876.622 658.85Q874.809 659.309 872.949 659.508Q871.089 659.708 869.22 659.645C861.029 659.421 852.72 655.877 847.172 649.811C840.75 642.789 839.252 634.993 839.67 625.795Z" fill="#010100"/>
	<path d="M844 625.964C853.514 626.301 861.103 628.351 867.8 635.421C874.193 642.169 874.01 646.325 876.884 654.385Q874.887 654.906 872.836 655.14Q870.786 655.374 868.723 655.316C861.863 655.092 854.873 652.248 850.232 647.126C844.628 640.942 843.72 633.914 844 625.964Z" fill="#4C289A"/>
	<path d="M844 625.964C845.27 618.977 848.089 612.87 854.069 608.669C859.962 604.53 867.753 602.64 874.826 604.056Q875.459 604.179 876.085 604.334Q876.711 604.49 877.329 604.676Q877.946 604.862 878.554 605.079Q879.161 605.296 879.757 605.543Q880.353 605.79 880.935 606.066Q881.518 606.343 882.086 606.649Q882.654 606.954 883.206 607.288Q883.758 607.621 884.293 607.982Q884.827 608.343 885.343 608.73Q885.859 609.117 886.355 609.529Q886.851 609.942 887.325 610.379Q887.8 610.816 888.252 611.276Q888.704 611.736 889.133 612.218Q889.561 612.7 889.965 613.203Q890.369 613.706 890.747 614.229Q891.125 614.751 891.476 615.292Q891.833 615.844 892.162 616.413Q892.491 616.983 892.791 617.567Q893.091 618.152 893.362 618.751Q893.633 619.35 893.873 619.962Q894.114 620.574 894.324 621.197Q894.534 621.82 894.712 622.453Q894.891 623.086 895.038 623.727Q895.184 624.367 895.299 625.015Q895.414 625.662 895.496 626.314Q895.579 626.967 895.629 627.622Q895.678 628.278 895.696 628.935Q895.713 629.592 895.697 630.249Q895.682 630.906 895.634 631.562Q895.585 632.218 895.505 632.87Q895.424 633.523 895.311 634.17Q895.197 634.818 895.052 635.459Q894.911 636.082 894.739 636.696Q894.567 637.311 894.364 637.916Q894.16 638.521 893.927 639.115Q893.693 639.709 893.43 640.291Q893.167 640.872 892.874 641.439Q892.582 642.007 892.261 642.559Q891.94 643.11 891.592 643.645Q891.244 644.18 890.869 644.697Q890.494 645.214 890.093 645.71Q889.693 646.207 889.268 646.683Q888.842 647.159 888.394 647.613Q887.945 648.067 887.474 648.498Q887.002 648.929 886.51 649.335Q886.018 649.741 885.505 650.122Q884.993 650.502 884.462 650.857Q883.931 651.211 883.383 651.538C881.346 652.768 879.117 653.591 876.884 654.385C874.01 646.325 874.193 642.169 867.8 635.421C861.103 628.351 853.514 626.301 844 625.964Z" fill="#FEFEFE"/>
	<path d="M318.245 612.886C322.626 591.742 331.192 571.514 342.107 552.937Q343.404 550.725 344.756 548.546Q346.107 546.367 347.512 544.221Q348.916 542.076 350.373 539.966Q351.83 537.856 353.338 535.782Q354.847 533.708 356.406 531.672Q357.965 529.636 359.573 527.639Q361.182 525.642 362.839 523.686Q364.496 521.729 366.201 519.813Q367.906 517.898 369.658 516.025Q371.409 514.152 373.206 512.323Q375.003 510.494 376.845 508.709Q378.686 506.925 380.571 505.186Q382.456 503.448 384.383 501.756Q386.31 500.064 388.278 498.42Q390.246 496.776 392.254 495.181Q394.262 493.587 396.308 492.042Q398.355 490.497 400.439 489.002Q402.523 487.508 404.643 486.066Q406.763 484.623 408.918 483.233Q411.073 481.843 413.261 480.507Q415.45 479.17 417.67 477.888Q419.891 476.606 422.142 475.379Q424.394 474.152 426.675 472.98Q428.956 471.809 431.265 470.694Q433.574 469.579 435.91 468.521Q438.246 467.463 440.607 466.463Q442.969 465.463 445.354 464.522Q447.739 463.58 450.146 462.697Q452.554 461.815 454.983 460.992Q457.411 460.169 459.859 459.405Q462.307 458.642 464.773 457.94Q467.239 457.237 469.722 456.595Q472.163 455.977 474.619 455.417Q477.074 454.858 479.543 454.359Q482.011 453.859 484.491 453.42Q486.971 452.98 489.461 452.601Q491.95 452.222 494.449 451.903Q496.947 451.584 499.452 451.326Q501.957 451.068 504.468 450.871Q506.978 450.674 509.493 450.537Q512.008 450.401 514.525 450.326Q517.043 450.25 519.561 450.236Q522.079 450.222 524.597 450.269Q527.115 450.315 529.631 450.423Q532.148 450.531 534.66 450.7Q537.173 450.868 539.681 451.098Q542.189 451.328 544.691 451.618Q547.192 451.908 549.686 452.259Q552.18 452.61 554.665 453.022Q557.149 453.433 559.623 453.904Q562.097 454.376 564.559 454.907Q567.021 455.438 569.469 456.029Q571.917 456.62 574.35 457.269Q576.783 457.919 579.2 458.628Q581.617 459.337 584.016 460.104Q586.414 460.871 588.794 461.696Q591.173 462.521 593.532 463.404Q595.891 464.286 598.227 465.226Q600.564 466.165 602.877 467.161Q605.19 468.156 607.479 469.208Q609.767 470.26 612.03 471.366Q614.292 472.473 616.526 473.634Q618.761 474.796 620.967 476.011Q623.173 477.226 625.349 478.494C674.139 507.256 711.302 557.303 725.393 612.1L767.662 612.087C774.885 612.084 783.847 611.111 790.837 612.784C792.18 614.062 792.292 615.912 792.435 617.726C793.381 629.708 792.574 642.359 792.567 654.422L792.59 725.917C792.597 734.974 791.452 749.126 793.491 757.417C794.425 761.215 796.88 763.359 800.057 765.392C804.231 765.477 810.916 764.407 814.584 766.383C815.399 766.822 815.713 767.573 815.957 768.416C817.014 772.065 816.922 815.187 816.49 821.36C816.373 823.036 816.191 824.581 815.409 826.09C811.659 828.116 797.867 826.792 792.651 827.14C792.013 837.258 793.867 856.802 792.054 865.309C791.822 866.398 791.899 866.991 790.788 867.53C789.302 868.251 735.402 868.362 729.306 867.909C727.702 867.79 726.38 867.634 724.925 866.943C721.356 860.59 726.445 837.718 723.377 829.539C722.95 828.4 722.436 827.548 721.232 827.139C717.595 825.903 705.561 826.71 701.034 826.703L637.871 826.763C627.093 826.797 615.844 827.504 605.117 826.747C603.446 826.629 601.995 826.378 600.451 825.716C599.776 824.94 599.331 824.261 599.045 823.275C597.871 819.234 598.273 778.865 599.604 774.468C602.391 765.268 613.818 748.162 618.878 738.752L665.379 651.096Q615.29 650.818 565.201 651.059C581.204 670.517 591.539 692.324 595.545 717.313C601.795 756.29 595.381 804.291 571.781 836.786C557.246 856.798 535.872 870.339 511.335 874.14C484.014 878.371 454.657 872.864 432.233 856.225C412.444 841.541 399.531 818.227 393.525 794.64C391.588 787.03 390.54 779.311 389.398 771.556C388.836 764.668 388.048 757.729 387.918 750.819C387.251 715.622 394.645 678.732 417.351 650.882L362.521 650.833L362.509 720.906C362.51 731.486 361.521 745.829 362.955 756.033C363.288 758.405 363.965 760.628 365.738 762.33C373.134 769.427 386.739 758.784 387.589 771.61C388.259 781.724 386.872 792.037 387.928 802.133C387.326 806.832 389.168 821.633 386.771 824.825C384.447 827.919 367.346 826.48 363.223 826.48C362.867 840.082 363.905 853.891 362.896 867.449C352.112 868.271 340.796 867.585 329.961 867.582C318.656 867.578 306.77 868.328 295.54 867.192C291.213 862.056 298.236 838.873 292.156 830.815C290.39 828.474 287.876 827.442 285.049 827C276.387 825.644 266.483 826.72 257.65 826.773L197.587 826.832C187.443 826.827 176.337 827.701 166.291 826.418C166.076 826.39 165.862 826.357 165.647 826.327C165.117 818.727 164.614 779.82 166.143 774.35C167.333 770.087 170.612 765.523 172.784 761.619L189.202 732.416Q211.229 692.234 234.093 652.523C241.407 639.637 248.107 625.854 256.535 613.689C259.232 612.029 311.255 612.894 318.245 612.886Z" fill="#010100"/>
	<path d="M689.034 616.052C705.971 615.856 722.936 616.058 739.876 616.07C756.068 616.081 772.286 615.875 788.471 616.339L788.547 710.077L788.52 738.09C788.516 743.526 788.166 749.324 788.868 754.715C789.367 758.547 790.757 762.708 793.508 765.528C798.105 770.24 806.322 769.227 812.364 769.374C812.78 787.174 812.453 805.058 812.482 822.868C808.043 823.064 803.591 822.794 799.149 822.809C796.367 822.818 792.884 822.569 790.86 824.78C789.486 826.282 788.855 828.592 788.572 830.554C787.441 838.385 788.422 855.234 788.471 863.851L747.667 863.84C741.548 863.827 734.457 864.526 728.442 863.608L728.073 862.546C727.957 853.756 729.181 839.239 727.789 831.237C727.076 827.139 725.836 825.392 722.453 823.016C708.87 822.53 695.175 822.795 681.58 822.767L602.583 822.793Q602.705 809.095 602.593 795.397C602.57 789.447 601.813 782.302 603.242 776.504C604.692 770.618 609.03 764.566 611.961 759.25L626.729 732.304C647.471 693.606 667.232 654.151 689.034 616.052Z" fill="#FEFEFE"/>
	<path d="M722.477 670.058C724.384 669.984 725.884 669.921 727.699 670.559C730.013 673.759 729.676 679.976 729.691 683.826L729.74 729.738C729.762 737.751 730.668 747.183 729.307 755.065C728.731 758.406 726.972 762.073 724.507 764.423C722.084 766.731 718.978 768.219 715.709 768.859C710.177 769.941 703.955 769.338 698.303 769.282L674.875 769.184C673.615 769.203 672.377 769.173 671.135 768.931C669.603 768.633 668.217 767.879 667.46 766.454C667.146 765.864 666.901 764.756 667.085 764.143C669.234 756.993 681.204 738.396 685.672 730.496L706.646 693.561C710.526 686.709 714.187 679.201 718.723 672.772C719.643 671.466 721.098 670.785 722.477 670.058Z" fill="#010100"/>
	<path d="M723.075 673.793C723.921 673.864 724.237 673.978 724.982 674.324C725.789 676.031 725.809 677.83 725.838 679.69C726.062 694.295 725.691 709.027 725.708 723.653C725.719 732.821 726.779 746.334 725.086 754.935Q724.985 755.45 724.844 755.955Q724.704 756.461 724.525 756.954Q724.346 757.447 724.13 757.925Q723.914 758.403 723.661 758.863Q723.409 759.323 723.122 759.762Q722.835 760.201 722.515 760.617Q722.195 761.033 721.845 761.423Q721.494 761.813 721.114 762.175C719.52 763.714 717.849 764.625 715.674 765.056C710.284 766.125 704.317 765.622 698.824 765.594L672.935 765.43C672.053 765.262 671.895 765.162 671.21 764.648C671.189 764.486 671.144 764.325 671.147 764.162C671.16 763.594 718.386 679.732 723.075 673.793Z" fill="#FEFEFE"/>
	<path d="M258.736 617.02L358.566 617.021L358.535 711.462L358.491 739.79C358.484 745.195 358.117 750.995 358.773 756.356C359.138 759.333 360.634 762.429 362.693 764.605C367.716 769.917 376.84 768.793 383.515 768.817L383.605 822.623C379.707 822.608 362.599 821.672 360.328 823.541C358.108 830.401 359.348 854.861 359.386 863.579L320.225 863.721C313.243 863.753 305.98 864.25 299.052 863.542C298.188 862.402 298.421 861.515 298.374 860.125L298.488 844.227C298.543 838.156 298.64 831.422 293.906 826.866C291.971 825.004 289.501 823.418 286.802 823.043C276.436 821.6 260.134 822.734 248.966 822.75L169.529 822.791C169.565 813.137 168.429 783.06 170.315 775.864C172.45 767.723 189.194 740.785 194.3 731.575Q215.242 693.658 236.645 655.998C243.954 643.034 250.821 629.606 258.736 617.02Z" fill="#FEFEFE"/>
	<path d="M290.593 669.539C292.385 669.428 294.604 669.167 296.147 670.294C297.709 671.435 298.123 673.514 298.201 675.326C298.349 678.771 297.961 682.333 297.969 685.8Q298.135 703.306 298.094 720.813C298.092 730.126 299.135 749.462 297.479 757.842C296.928 760.627 295.459 763.115 293.457 765.113C291.926 766.641 290.027 767.918 287.911 768.45C280.778 770.246 254.514 769.058 245.402 769.021C243.234 768.637 241.16 768.343 239.665 766.559C238.448 765.107 238.272 762.997 238.653 761.203C239.465 757.369 245.043 749.248 247.19 745.221Q259.862 721.071 273.136 697.248C277.597 689.128 281.829 680.524 286.909 672.788C287.891 671.293 289.077 670.448 290.593 669.539Z" fill="#010100"/>
	<path d="M291.14 673.196C292.234 673.316 292.843 673.379 293.733 674.05C295.065 680.849 294.012 703.12 294.021 711.173L294.099 739.865C294.11 745.209 294.566 750.953 293.688 756.217C292.969 760.532 290.659 762.54 287.219 764.963C274.855 766.171 257.732 765.188 244.875 765.148C243.983 765.123 243.497 765.001 242.701 764.598L242.353 763.317C243.629 757.863 250.544 747.199 253.457 741.748Q264.809 720.573 276.42 699.539C281.25 690.741 285.904 681.755 291.14 673.196Z" fill="#FEFEFE"/>
	<path d="M480.184 624.697C480.34 624.673 480.494 624.64 480.65 624.624C504.153 622.14 531.564 628.346 550.477 642.784C574.728 661.297 588.306 693.269 592.179 722.851C597.097 760.423 590.304 806.411 566.725 836.899C551.748 856.264 530.811 867.814 506.621 870.898Q505.897 871.006 505.169 871.091C480.084 874.15 451.973 867.099 432.184 851.205C408.031 831.806 396.102 799.558 392.962 769.488C389.003 731.571 393.87 685.8 418.806 655.43C434.863 635.875 455.379 627.197 480.184 624.697Z" fill="#FEFEFE"/>
	<path d="M486.657 667.633C492.684 667.245 497.953 667.528 503.413 670.397C512.961 675.415 518.18 685.862 521.354 695.713C530.642 724.538 531.353 783.562 517.172 810.565C512.623 819.227 507.166 824.124 497.808 827.06C490.724 828.326 483.692 827.971 477.474 823.9C466.582 816.769 462.064 802.059 459.761 789.982C454.55 762.66 452.553 701.874 468.51 678.984C472.995 672.55 479.005 669.005 486.657 667.633Z" fill="#010100"/>
	<path d="M487.574 671.649C492.955 671.289 498.583 672.212 503.228 675.069C512.404 680.713 517.047 693.874 519.534 703.802C526.43 731.323 527.266 786.647 512.702 810.633C508.812 817.039 503.688 821.588 496.284 823.451C490.251 824.086 484.447 823.728 479.243 820.203C469.344 813.498 465.338 798.732 463.318 787.681C458.631 762.042 456.521 702.366 471.683 681.221C475.664 675.67 480.995 672.855 487.574 671.649Z" fill="#FEFEFE"/>
	<path d="M504.155 454.703C510.011 453.791 516.789 454.256 522.718 454.335Q525.902 454.361 529.084 454.488Q532.265 454.615 535.441 454.842Q538.617 455.069 541.785 455.397Q544.952 455.725 548.107 456.153Q551.263 456.581 554.403 457.108Q557.543 457.636 560.665 458.262Q563.787 458.889 566.887 459.614Q569.988 460.339 573.064 461.162Q576.14 461.985 579.188 462.905Q582.237 463.825 585.254 464.841Q588.272 465.857 591.256 466.968Q594.24 468.079 597.188 469.283Q600.135 470.488 603.043 471.786Q605.951 473.083 608.816 474.472Q611.681 475.861 614.501 477.34Q617.321 478.819 620.093 480.386C670.228 508.519 705.88 557.085 721.266 612.085C713.727 612.103 695.305 610.961 689.12 612.683Q688.414 612.875 687.749 613.179Q687.084 613.483 686.477 613.89Q685.869 614.297 685.335 614.797Q684.802 615.297 684.356 615.877C681.746 619.233 679.957 624.198 678.016 628.039Q673.102 637.877 667.466 647.32L562.193 647.298C559.167 645.176 556.392 642.541 553.471 640.256C547.286 635.417 540.923 631.727 533.793 628.465C521.569 622.99 507.662 621.078 494.371 620.422C465.174 618.981 442.002 627.59 420.53 647.065Q391.537 647.345 362.547 646.87C362.498 640.071 363.43 622.879 362.368 617.166C362.15 615.997 361.718 614.809 360.788 614.012C359.791 613.159 358.418 612.832 357.14 612.739C353.444 612.472 349.447 612.984 345.713 613.033Q334.071 613.189 322.43 612.999C328.879 582.251 344.433 552.038 364.321 527.832C399.686 484.788 449.068 460.044 504.155 454.703Z" fill="#4C289A"/>
	<path d="M560.673 553.583C563.45 553.471 566.5 553.652 568.973 555.049C571.656 556.564 572.77 559.103 573.426 562.018C573.661 563.063 573.859 563.9 573.256 564.824C572.012 565.057 570.454 565.481 569.196 565.218C567.425 564.847 566.977 564.223 566.09 562.732C566 562.58 565.379 561.498 565.235 561.332C564.395 560.36 563.585 560.195 562.333 560.223C561.067 560.251 560.431 560.72 559.692 561.653C559.78 567.556 570.784 575.202 573.125 581.684C573.973 584.034 574.36 586.965 573.137 589.262C571.527 592.285 569.047 593.531 565.922 594.547C562.834 594.583 559.735 594.171 557.214 592.224C554.016 589.754 553.386 586.181 552.881 582.439C554.881 582.365 557.355 581.972 559.209 582.79C559.412 583.826 559.644 584.829 560.218 585.734C561.055 587.056 562.232 587.572 563.695 587.827C565.112 587.383 565.431 587.306 566.426 586.23C567.264 580.993 555.704 572.763 553.598 566.241C552.836 563.88 552.367 561.026 553.616 558.745C555.178 555.889 557.703 554.58 560.673 553.583Z" fill="#FEFEFE"/>
	<path d="M528.751 553.939C533.348 553.692 541.053 552.818 545.001 555.202C547.369 556.632 548.619 559.207 549.131 561.839C549.883 565.705 550.174 570.256 547.737 573.609C545.872 576.177 543.009 577.595 539.931 578.017C538.614 578.198 537.502 578.382 536.243 578.804L535.979 579.875L536.048 593.778L528.824 593.989L528.751 553.939Z" fill="#FEFEFE"/>
	<path d="M536.469 560.624C537.504 560.676 538.807 560.638 539.797 560.923C540.964 561.259 541.785 562.276 542.202 563.383C543.12 565.822 541.963 568.925 540.936 571.143C539.858 571.455 538.743 571.902 537.613 571.674C536.916 571.534 536.554 570.918 536.252 570.317C535.099 568.023 535.606 563.018 536.469 560.624Z" fill="#4C289A"/>
	<path d="M508.96 553.547C511.244 553.315 513.676 553.243 515.887 553.942C518.567 554.788 520.556 556.487 521.788 559.012C523.849 563.238 524.438 583.687 522.602 588.319C521.286 591.639 519.061 592.974 515.955 594.427C513.79 594.556 511.459 594.737 509.346 594.169C506.71 593.459 504.48 592.011 503.153 589.577C500.601 584.896 500.652 565.071 502.415 559.776C503.581 556.276 505.748 555.057 508.96 553.547Z" fill="#FEFEFE"/>
	<path d="M510.799 560.297C511.801 560.39 513.301 560.429 514.041 561.114C517.04 563.891 515.915 575.106 515.81 579.095C515.721 582.515 516.108 585.536 513.468 588.042C512.529 587.939 511.365 587.848 510.661 587.183C509.327 585.923 509.11 584.057 508.936 582.316C508.487 577.822 508.111 567.054 509.227 562.966C509.545 561.8 510.044 561.207 510.799 560.297Z" fill="#4C289A"/>
	<path d="M481.924 553.091C484.706 552.691 487.808 552.603 490.467 553.637C492.676 554.495 494.308 556.133 495.264 558.29C497.111 562.461 497.324 584.428 495.557 588.897C494.398 591.829 491.831 593.318 489.061 594.491C486.702 594.756 484.243 594.738 481.958 594.038C479.292 593.223 477.273 591.612 475.999 589.125C473.448 584.145 473.628 565.079 475.404 559.64C476.582 556.033 478.609 554.702 481.924 553.091Z" fill="#FEFEFE"/>
	<path d="M484.097 560.368C485.151 560.253 485.983 560.379 487.022 560.574C488.811 561.997 489.022 563.709 489.241 565.87C489.803 571.401 490.403 583.31 486.929 587.524C486.004 587.538 485.209 587.367 484.308 587.165C483.031 586.119 482.606 585.347 482.25 583.775C481.026 578.379 481.083 565.011 484.097 560.368Z" fill="#4C289A"/>
</svg>